<mxfile host="app.diagrams.net" modified="2023-05-06T03:17:55.883Z" agent="Mozilla/5.0 (Windows NT 10.0; WOW64) AppleWebKit/537.36 (KHTML, like Gecko) Chrome/108.0.5359.95 Safari/537.36" etag="YWI_g9vqnBAhkZ16_vRV" version="21.2.2" type="github">
  <diagram name="动作流程" id="9361dd3d-8414-5efd-6122-117bd74ce7a7">
    <mxGraphModel dx="1588" dy="1237" grid="1" gridSize="10" guides="1" tooltips="1" connect="1" arrows="1" fold="1" page="0" pageScale="1.5" pageWidth="826" pageHeight="1169" background="none" math="0" shadow="0">
      <root>
        <mxCell id="0" />
        <mxCell id="1" parent="0" />
        <mxCell id="mnChKqefbbS80q4aStqb-95" value="&lt;div class=&quot;lake-content&quot;&gt;&lt;br&gt;&lt;/div&gt;" style="text;whiteSpace=wrap;html=1;" parent="1" vertex="1">
          <mxGeometry x="-500" y="-380" width="80" height="40" as="geometry" />
        </mxCell>
        <mxCell id="mnChKqefbbS80q4aStqb-102" value="" style="shape=umlLifeline;perimeter=lifelinePerimeter;whiteSpace=wrap;html=1;container=1;dropTarget=0;collapsible=0;recursiveResize=0;outlineConnect=0;portConstraint=eastwest;newEdgeStyle={&quot;edgeStyle&quot;:&quot;elbowEdgeStyle&quot;,&quot;elbow&quot;:&quot;vertical&quot;,&quot;curved&quot;:0,&quot;rounded&quot;:0};participant=umlActor;" parent="1" vertex="1">
          <mxGeometry x="-800" y="-380" width="20" height="300" as="geometry" />
        </mxCell>
        <mxCell id="mnChKqefbbS80q4aStqb-103" value="&lt;div class=&quot;lake-content&quot;&gt;NcAction&lt;/div&gt;" style="shape=umlLifeline;perimeter=lifelinePerimeter;whiteSpace=wrap;html=1;container=1;dropTarget=0;collapsible=0;recursiveResize=0;outlineConnect=0;portConstraint=eastwest;newEdgeStyle={&quot;edgeStyle&quot;:&quot;elbowEdgeStyle&quot;,&quot;elbow&quot;:&quot;vertical&quot;,&quot;curved&quot;:0,&quot;rounded&quot;:0};" parent="1" vertex="1">
          <mxGeometry x="-740" y="-380" width="100" height="300" as="geometry" />
        </mxCell>
        <mxCell id="mnChKqefbbS80q4aStqb-104" value="&lt;div class=&quot;lake-content&quot;&gt;AbstractScriptExcAction&lt;/div&gt;" style="shape=umlLifeline;perimeter=lifelinePerimeter;whiteSpace=wrap;html=1;container=1;dropTarget=0;collapsible=0;recursiveResize=0;outlineConnect=0;portConstraint=eastwest;newEdgeStyle={&quot;edgeStyle&quot;:&quot;elbowEdgeStyle&quot;,&quot;elbow&quot;:&quot;vertical&quot;,&quot;curved&quot;:0,&quot;rounded&quot;:0};" parent="1" vertex="1">
          <mxGeometry x="-600" y="-380" width="100" height="300" as="geometry" />
        </mxCell>
        <mxCell id="mnChKqefbbS80q4aStqb-105" value="&lt;div class=&quot;lake-content&quot;&gt;&lt;p style=&quot;margin: 0; padding: 0; min-height: 24px&quot; class=&quot;ne-p&quot; id=&quot;ub7c91c3c&quot;&gt;PfUtilClient&lt;/p&gt;&lt;/div&gt;" style="shape=umlLifeline;perimeter=lifelinePerimeter;whiteSpace=wrap;html=1;container=1;dropTarget=0;collapsible=0;recursiveResize=0;outlineConnect=0;portConstraint=eastwest;newEdgeStyle={&quot;edgeStyle&quot;:&quot;elbowEdgeStyle&quot;,&quot;elbow&quot;:&quot;vertical&quot;,&quot;curved&quot;:0,&quot;rounded&quot;:0};" parent="1" vertex="1">
          <mxGeometry x="-470" y="-380" width="100" height="300" as="geometry" />
        </mxCell>
        <mxCell id="mnChKqefbbS80q4aStqb-106" value="&lt;div class=&quot;lake-content&quot;&gt;PFBusiAction&lt;/div&gt;" style="shape=umlLifeline;perimeter=lifelinePerimeter;whiteSpace=wrap;html=1;container=1;dropTarget=0;collapsible=0;recursiveResize=0;outlineConnect=0;portConstraint=eastwest;newEdgeStyle={&quot;edgeStyle&quot;:&quot;elbowEdgeStyle&quot;,&quot;elbow&quot;:&quot;vertical&quot;,&quot;curved&quot;:0,&quot;rounded&quot;:0};" parent="1" vertex="1">
          <mxGeometry x="-230" y="-380" width="100" height="300" as="geometry" />
        </mxCell>
        <mxCell id="mnChKqefbbS80q4aStqb-107" value="&lt;div class=&quot;lake-content&quot;&gt;&lt;p style=&quot;margin: 0; padding: 0; min-height: 24px&quot; class=&quot;ne-p&quot; id=&quot;u379e228c&quot;&gt;AbstractPfAction&lt;/p&gt;&lt;/div&gt;" style="shape=umlLifeline;perimeter=lifelinePerimeter;whiteSpace=wrap;html=1;container=1;dropTarget=0;collapsible=0;recursiveResize=0;outlineConnect=0;portConstraint=eastwest;newEdgeStyle={&quot;edgeStyle&quot;:&quot;elbowEdgeStyle&quot;,&quot;elbow&quot;:&quot;vertical&quot;,&quot;curved&quot;:0,&quot;rounded&quot;:0};" parent="1" vertex="1">
          <mxGeometry x="-120" y="-380" width="100" height="300" as="geometry" />
        </mxCell>
        <mxCell id="mnChKqefbbS80q4aStqb-108" value="client" style="shape=umlFrame;whiteSpace=wrap;html=1;pointerEvents=0;" parent="1" vertex="1">
          <mxGeometry x="-750" y="-460" width="400" height="420" as="geometry" />
        </mxCell>
        <mxCell id="mnChKqefbbS80q4aStqb-110" value="private" style="shape=umlFrame;whiteSpace=wrap;html=1;pointerEvents=0;" parent="1" vertex="1">
          <mxGeometry x="-350" y="-460" width="410" height="420" as="geometry" />
        </mxCell>
        <mxCell id="mnChKqefbbS80q4aStqb-111" value="" style="html=1;points=[];perimeter=orthogonalPerimeter;outlineConnect=0;targetShapes=umlLifeline;portConstraint=eastwest;newEdgeStyle={&quot;edgeStyle&quot;:&quot;elbowEdgeStyle&quot;,&quot;elbow&quot;:&quot;vertical&quot;,&quot;curved&quot;:0,&quot;rounded&quot;:0};" parent="1" vertex="1">
          <mxGeometry x="-695" y="-310" width="10" height="80" as="geometry" />
        </mxCell>
        <mxCell id="mnChKqefbbS80q4aStqb-112" value="actionperformd&lt;br&gt;" style="html=1;verticalAlign=bottom;startArrow=oval;endArrow=block;startSize=8;edgeStyle=elbowEdgeStyle;elbow=vertical;curved=0;rounded=0;" parent="1" edge="1">
          <mxGeometry relative="1" as="geometry">
            <mxPoint x="-755" y="-310" as="sourcePoint" />
            <mxPoint x="-700" y="-320" as="targetPoint" />
          </mxGeometry>
        </mxCell>
        <mxCell id="mnChKqefbbS80q4aStqb-115" value="" style="html=1;points=[];perimeter=orthogonalPerimeter;outlineConnect=0;targetShapes=umlLifeline;portConstraint=eastwest;newEdgeStyle={&quot;edgeStyle&quot;:&quot;elbowEdgeStyle&quot;,&quot;elbow&quot;:&quot;vertical&quot;,&quot;curved&quot;:0,&quot;rounded&quot;:0};" parent="1" vertex="1">
          <mxGeometry x="-555" y="-290" width="10" height="20" as="geometry" />
        </mxCell>
        <mxCell id="mnChKqefbbS80q4aStqb-116" value="doaction" style="html=1;verticalAlign=bottom;startArrow=oval;endArrow=block;startSize=8;edgeStyle=elbowEdgeStyle;elbow=vertical;curved=0;rounded=0;" parent="1" source="mnChKqefbbS80q4aStqb-111" target="mnChKqefbbS80q4aStqb-115" edge="1">
          <mxGeometry relative="1" as="geometry">
            <mxPoint x="-615" y="-290" as="sourcePoint" />
          </mxGeometry>
        </mxCell>
        <mxCell id="mnChKqefbbS80q4aStqb-122" value="" style="html=1;points=[];perimeter=orthogonalPerimeter;outlineConnect=0;targetShapes=umlLifeline;portConstraint=eastwest;newEdgeStyle={&quot;edgeStyle&quot;:&quot;elbowEdgeStyle&quot;,&quot;elbow&quot;:&quot;vertical&quot;,&quot;curved&quot;:0,&quot;rounded&quot;:0};" parent="1" vertex="1">
          <mxGeometry x="-555" y="-260" width="10" height="40" as="geometry" />
        </mxCell>
        <mxCell id="mnChKqefbbS80q4aStqb-123" value="procflow" style="html=1;align=left;spacingLeft=2;endArrow=block;rounded=0;edgeStyle=orthogonalEdgeStyle;curved=0;rounded=0;" parent="1" target="mnChKqefbbS80q4aStqb-122" edge="1">
          <mxGeometry relative="1" as="geometry">
            <mxPoint x="-545" y="-280" as="sourcePoint" />
            <Array as="points">
              <mxPoint x="-515" y="-250" />
            </Array>
          </mxGeometry>
        </mxCell>
        <mxCell id="mnChKqefbbS80q4aStqb-124" value="" style="html=1;points=[];perimeter=orthogonalPerimeter;outlineConnect=0;targetShapes=umlLifeline;portConstraint=eastwest;newEdgeStyle={&quot;edgeStyle&quot;:&quot;elbowEdgeStyle&quot;,&quot;elbow&quot;:&quot;vertical&quot;,&quot;curved&quot;:0,&quot;rounded&quot;:0};" parent="1" vertex="1">
          <mxGeometry x="-425" y="-230" width="10" height="80" as="geometry" />
        </mxCell>
        <mxCell id="mnChKqefbbS80q4aStqb-125" value="runAction" style="html=1;verticalAlign=bottom;startArrow=oval;endArrow=block;startSize=8;edgeStyle=elbowEdgeStyle;elbow=vertical;curved=0;rounded=0;" parent="1" source="mnChKqefbbS80q4aStqb-122" target="mnChKqefbbS80q4aStqb-124" edge="1">
          <mxGeometry relative="1" as="geometry">
            <mxPoint x="-485" y="-230" as="sourcePoint" />
          </mxGeometry>
        </mxCell>
        <mxCell id="mnChKqefbbS80q4aStqb-126" value="" style="html=1;points=[];perimeter=orthogonalPerimeter;outlineConnect=0;targetShapes=umlLifeline;portConstraint=eastwest;newEdgeStyle={&quot;edgeStyle&quot;:&quot;elbowEdgeStyle&quot;,&quot;elbow&quot;:&quot;vertical&quot;,&quot;curved&quot;:0,&quot;rounded&quot;:0};" parent="1" vertex="1">
          <mxGeometry x="-185" y="-220" width="10" height="80" as="geometry" />
        </mxCell>
        <mxCell id="mnChKqefbbS80q4aStqb-132" value="" style="html=1;points=[];perimeter=orthogonalPerimeter;outlineConnect=0;targetShapes=umlLifeline;portConstraint=eastwest;newEdgeStyle={&quot;edgeStyle&quot;:&quot;elbowEdgeStyle&quot;,&quot;elbow&quot;:&quot;vertical&quot;,&quot;curved&quot;:0,&quot;rounded&quot;:0};" parent="1" vertex="1">
          <mxGeometry x="-75" y="-210" width="10" height="40" as="geometry" />
        </mxCell>
        <mxCell id="mnChKqefbbS80q4aStqb-133" value="runcombusi" style="html=1;verticalAlign=bottom;startArrow=oval;endArrow=block;startSize=8;edgeStyle=elbowEdgeStyle;elbow=vertical;curved=0;rounded=0;" parent="1" source="mnChKqefbbS80q4aStqb-126" target="mnChKqefbbS80q4aStqb-132" edge="1">
          <mxGeometry relative="1" as="geometry">
            <mxPoint x="-225" y="-200" as="sourcePoint" />
          </mxGeometry>
        </mxCell>
        <mxCell id="mnChKqefbbS80q4aStqb-134" value="" style="html=1;points=[];perimeter=orthogonalPerimeter;outlineConnect=0;targetShapes=umlLifeline;portConstraint=eastwest;newEdgeStyle={&quot;edgeStyle&quot;:&quot;elbowEdgeStyle&quot;,&quot;elbow&quot;:&quot;vertical&quot;,&quot;curved&quot;:0,&quot;rounded&quot;:0};" parent="1" vertex="1">
          <mxGeometry x="-75" y="-150" width="10" height="40" as="geometry" />
        </mxCell>
        <mxCell id="mnChKqefbbS80q4aStqb-135" value="processBP" style="html=1;align=left;spacingLeft=2;endArrow=block;rounded=0;edgeStyle=orthogonalEdgeStyle;curved=0;rounded=0;" parent="1" target="mnChKqefbbS80q4aStqb-134" edge="1" source="mnChKqefbbS80q4aStqb-132">
          <mxGeometry relative="1" as="geometry">
            <mxPoint x="-160" y="-170" as="sourcePoint" />
            <Array as="points">
              <mxPoint x="-40" y="-190" />
              <mxPoint x="-40" y="-140" />
            </Array>
          </mxGeometry>
        </mxCell>
        <mxCell id="mnChKqefbbS80q4aStqb-136" value="" style="html=1;points=[];perimeter=orthogonalPerimeter;outlineConnect=0;targetShapes=umlLifeline;portConstraint=eastwest;newEdgeStyle={&quot;edgeStyle&quot;:&quot;elbowEdgeStyle&quot;,&quot;elbow&quot;:&quot;vertical&quot;,&quot;curved&quot;:0,&quot;rounded&quot;:0};" parent="1" vertex="1">
          <mxGeometry x="-185" y="-120" width="10" height="40" as="geometry" />
        </mxCell>
        <mxCell id="mnChKqefbbS80q4aStqb-137" value="&lt;div class=&quot;lake-content&quot;&gt;actiondrive&lt;/div&gt;" style="html=1;align=left;spacingLeft=2;endArrow=block;rounded=0;edgeStyle=orthogonalEdgeStyle;curved=0;rounded=0;" parent="1" target="mnChKqefbbS80q4aStqb-136" edge="1" source="mnChKqefbbS80q4aStqb-126">
          <mxGeometry relative="1" as="geometry">
            <mxPoint x="-275" y="-140" as="sourcePoint" />
            <Array as="points">
              <mxPoint x="-245" y="-180" />
              <mxPoint x="-245" y="-110" />
            </Array>
          </mxGeometry>
        </mxCell>
        <mxCell id="mnChKqefbbS80q4aStqb-139" value="return" style="html=1;verticalAlign=bottom;endArrow=open;dashed=1;endSize=8;edgeStyle=elbowEdgeStyle;elbow=vertical;curved=0;rounded=0;entryX=1.5;entryY=0.875;entryDx=0;entryDy=0;entryPerimeter=0;" parent="1" target="mnChKqefbbS80q4aStqb-124" edge="1">
          <mxGeometry relative="1" as="geometry">
            <mxPoint x="-290" y="-160" as="sourcePoint" />
            <mxPoint x="-370" y="-160" as="targetPoint" />
          </mxGeometry>
        </mxCell>
        <mxCell id="S1cpUyc1iEmbJpvxU2aP-2" value="&lt;div class=&quot;lake-content&quot;&gt;IplatFormEntry&lt;/div&gt;" style="shape=umlLifeline;perimeter=lifelinePerimeter;whiteSpace=wrap;html=1;container=1;dropTarget=0;collapsible=0;recursiveResize=0;outlineConnect=0;portConstraint=eastwest;newEdgeStyle={&quot;edgeStyle&quot;:&quot;elbowEdgeStyle&quot;,&quot;elbow&quot;:&quot;vertical&quot;,&quot;curved&quot;:0,&quot;rounded&quot;:0};" vertex="1" parent="1">
          <mxGeometry x="-340" y="-380" width="100" height="300" as="geometry" />
        </mxCell>
        <mxCell id="S1cpUyc1iEmbJpvxU2aP-5" value="" style="html=1;points=[];perimeter=orthogonalPerimeter;outlineConnect=0;targetShapes=umlLifeline;portConstraint=eastwest;newEdgeStyle={&quot;edgeStyle&quot;:&quot;elbowEdgeStyle&quot;,&quot;elbow&quot;:&quot;vertical&quot;,&quot;curved&quot;:0,&quot;rounded&quot;:0};" vertex="1" parent="S1cpUyc1iEmbJpvxU2aP-2">
          <mxGeometry x="45" y="150" width="10" height="80" as="geometry" />
        </mxCell>
        <mxCell id="S1cpUyc1iEmbJpvxU2aP-6" value="processAction" style="html=1;verticalAlign=bottom;startArrow=oval;endArrow=block;startSize=8;edgeStyle=elbowEdgeStyle;elbow=vertical;curved=0;rounded=0;" edge="1" target="S1cpUyc1iEmbJpvxU2aP-5" parent="1" source="mnChKqefbbS80q4aStqb-124">
          <mxGeometry relative="1" as="geometry">
            <mxPoint x="-355" y="-230" as="sourcePoint" />
          </mxGeometry>
        </mxCell>
        <mxCell id="S1cpUyc1iEmbJpvxU2aP-7" value="" style="edgeStyle=elbowEdgeStyle;rounded=0;orthogonalLoop=1;jettySize=auto;html=1;elbow=vertical;curved=0;" edge="1" parent="1" source="S1cpUyc1iEmbJpvxU2aP-5" target="mnChKqefbbS80q4aStqb-126">
          <mxGeometry relative="1" as="geometry">
            <Array as="points">
              <mxPoint x="-240" y="-200" />
            </Array>
          </mxGeometry>
        </mxCell>
        <mxCell id="S1cpUyc1iEmbJpvxU2aP-8" value="processAction&lt;br&gt;" style="text;html=1;align=center;verticalAlign=middle;resizable=0;points=[];autosize=1;strokeColor=none;fillColor=none;" vertex="1" parent="1">
          <mxGeometry x="-290" y="-232" width="100" height="30" as="geometry" />
        </mxCell>
        <mxCell id="S1cpUyc1iEmbJpvxU2aP-11" value="lock" style="text;html=1;align=center;verticalAlign=middle;resizable=0;points=[];autosize=1;strokeColor=none;fillColor=none;" vertex="1" parent="1">
          <mxGeometry x="-330" y="-242" width="40" height="30" as="geometry" />
        </mxCell>
      </root>
    </mxGraphModel>
  </diagram>
</mxfile>
